<svg xmlns="http://www.w3.org/2000/svg" viewBox="0 0 600 720" role="img" aria-label="Ilustração provisória: personal trainer">
  <defs>
    <linearGradient id="bg" x1="0" y1="0" x2="1" y2="1">
      <stop offset="0" stop-color="#1B242E"/><stop offset="1" stop-color="#0E1216"/>
    </linearGradient>
  </defs>
  <rect width="600" height="720" fill="url(#bg)"/>
  <circle cx="300" cy="290" r="190" fill="#FF6B2C" opacity="0.14"/>
  <!-- silhueta levantando barra -->
  <g fill="#2A3542">
    <rect x="150" y="235" width="300" height="16" rx="8"/>
    <rect x="128" y="212" width="34" height="62" rx="8"/>
    <rect x="438" y="212" width="34" height="62" rx="8"/>
    <circle cx="300" cy="330" r="34"/>
    <rect x="272" y="360" width="56" height="130" rx="22"/>
    <rect x="252" y="250" width="18" height="120" rx="9" transform="rotate(14 261 310)"/>
    <rect x="330" y="250" width="18" height="120" rx="9" transform="rotate(-14 339 310)"/>
    <rect x="266" y="480" width="22" height="130" rx="11"/>
    <rect x="312" y="480" width="22" height="130" rx="11"/>
  </g>
  <rect x="120" y="618" width="360" height="6" rx="3" fill="#FF6B2C" opacity="0.6"/>
  <text x="300" y="666" text-anchor="middle" font-family="Arial, sans-serif" font-size="17" fill="#8d949c" letter-spacing="3">FOTO DO PERSONAL</text>
  <text x="300" y="690" text-anchor="middle" font-family="Arial, sans-serif" font-size="13" fill="#5a616a">substituir por foto real (600×720)</text>
</svg>
