<svg xmlns="http://www.w3.org/2000/svg" viewBox="0 0 1600 900">
  <defs><radialGradient id="g1" cx="50%" cy="38%" r="80%">
    <stop offset="0" stop-color="#16273E"/><stop offset="1" stop-color="#0A1628"/>
  </radialGradient></defs>
  <rect width="1600" height="900" fill="url(#g1)"/>
  <circle cx="800" cy="380" r="300" fill="#F0A63C" opacity="0.05"/>
  <g fill="#1C2B42" opacity="0.9">
    <rect x="200" y="620" width="1200" height="30" rx="8"/>
    <rect x="260" y="520" width="26" height="110" rx="8"/><rect x="300" y="540" width="20" height="90" rx="7"/>
    <rect x="480" y="510" width="30" height="120" rx="9"/><rect x="525" y="535" width="22" height="95" rx="7"/>
    <rect x="760" y="500" width="34" height="130" rx="10"/><rect x="810" y="528" width="24" height="102" rx="8"/>
    <rect x="1050" y="515" width="30" height="115" rx="9"/><rect x="1095" y="538" width="22" height="92" rx="7"/>
    <rect x="1290" y="525" width="26" height="105" rx="8"/></g>
  <text x="800" y="855" text-anchor="middle" font-family="Arial" font-size="22" fill="#3A4A62" letter-spacing="4">FUNDO 1 — SUBSTITUIR POR FOTO REAL (1600×900)</text>
</svg>