<svg xmlns="http://www.w3.org/2000/svg" viewBox="0 0 560 640" role="img" aria-label="Ilustração provisória: atendimento personalizado">
  <rect width="560" height="640" fill="#E9E5DC"/>
  <circle cx="280" cy="260" r="170" fill="#FF6B2C" opacity="0.16"/>
  <!-- aluno agachando -->
  <g fill="#C7BFB1">
    <circle cx="210" cy="250" r="28"/>
    <rect x="188" y="276" width="44" height="96" rx="18"/>
    <rect x="182" y="360" width="18" height="86" rx="9" transform="rotate(24 191 403)"/>
    <rect x="222" y="360" width="18" height="86" rx="9" transform="rotate(-6 231 403)"/>
  </g>
  <!-- personal orientando -->
  <g fill="#2A3542">
    <circle cx="352" cy="212" r="30"/>
    <rect x="328" y="240" width="48" height="118" rx="20"/>
    <rect x="296" y="252" width="16" height="88" rx="8" transform="rotate(38 304 296)"/>
    <rect x="376" y="252" width="16" height="88" rx="8" transform="rotate(-12 384 296)"/>
    <rect x="330" y="350" width="20" height="120" rx="10"/>
    <rect x="356" y="350" width="20" height="120" rx="10"/>
  </g>
  <!-- prancheta -->
  <rect x="256" y="298" width="46" height="60" rx="6" fill="#FF6B2C"/>
  <rect x="264" y="310" width="30" height="5" rx="2.5" fill="#fff" opacity="0.85"/>
  <rect x="264" y="322" width="30" height="5" rx="2.5" fill="#fff" opacity="0.85"/>
  <rect x="264" y="334" width="20" height="5" rx="2.5" fill="#fff" opacity="0.85"/>
  <rect x="110" y="520" width="340" height="6" rx="3" fill="#FF6B2C" opacity="0.55"/>
  <text x="280" y="574" text-anchor="middle" font-family="Arial, sans-serif" font-size="16" fill="#7d766a" letter-spacing="3">FOTO EM ATENDIMENTO</text>
  <text x="280" y="598" text-anchor="middle" font-family="Arial, sans-serif" font-size="12" fill="#a29a8c">substituir por foto real (560×640)</text>
</svg>
